<?xml version="1.0" encoding="utf-8"?>
<!-- Generator: Adobe Illustrator 24.0.1, SVG Export Plug-In . SVG Version: 6.00 Build 0)  -->
<svg version="1.1" id="Camada_1" xmlns="http://www.w3.org/2000/svg" xmlns:xlink="http://www.w3.org/1999/xlink" x="0px" y="0px"
	 viewBox="0 0 1080 1080" style="enable-background:new 0 0 1080 1080;" xml:space="preserve">
<style type="text/css">
	.st0{fill:#1A6774;stroke:#000000;stroke-miterlimit:10;}
	.st1{fill:none;}
	.st2{font-family:'MyriadPro-Regular';}
	.st3{font-size:70px;}
</style>
<path class="st0" d="M1083,877.4c0-0.5,0.1-1,0.2-1.4c-1.1-7.5-0.9-14.8-0.6-22.5c0.1-3,0.4-6,0.6-9c-0.5-7.9-1.2-15.7-2.9-23.4
	c-0.6-2.6,0.7-4.6,2.5-5.5c-0.7-5-1.6-10-2.3-15.1c-1.1-8.1,1.5-15.6,1.4-23.7c-18-3.9-36.7-6-55.7-6
	c-155.7,0-281.9,135.9-281.9,303.4c0,2.3,0,4.6,0.1,6.9c0.3,0,0.6,0,0.9,0c4.2,0.5,8.4,1,12.6,1.4c0.4-0.2,0.7-0.4,1.2-0.5
	c0.4-0.1,0.9-0.1,1.3-0.2c0.7,0,1.3,0.1,1.9,0.4c0.3,0.1,0.6,0.2,0.8,0.4c0.8-1.3,2.1-2.2,4.1-2.3c9.3,0,18.7-0.5,28,0
	c7.6,0.4,15.2,1.5,22.8,2.6c6,0,11.9,0.1,17.9,0.3c1-1.7,2.9-2.7,5.3-2c9.3,2.8,19.1,1.3,28.7,1c0.7-0.5,1.6-0.8,2.7-0.8
	c29.1,0,58.2,0.9,87.2,1.5c13.6,0.2,27.3,0.8,40.9,0.1c9.1-0.5,19.1-1.6,28.1,0.9c17.8-0.3,35.2-4.5,53-2.9
	c-0.7-7.9-0.6-15.7-0.2-23.8c0.7-11.1,0.6-22.1,0.9-33.2c0.2-10.5,0.2-20.5-1.2-31c-1.2-9.6-2.1-19-0.1-28.6c0.2-1.1,0.8-2,1.4-2.5
	c-0.9-0.8-1.5-1.9-1.6-3.3c-0.5-5.8,1.1-11.2,1.4-16.9c0.4-6.9-1.3-13.7-1.1-20.5c0-1.7,0.7-2.9,1.7-3.7
	C1085.1,904.3,1082.8,890.8,1083,877.4z"/>
<rect x="414.1" y="523.4" class="st1" width="384.5" height="62.1"/>
<text transform="matrix(1 0 0 1 414.1033 573.1477)" class="st2 st3">PROJETO</text>
</svg>
